<?xml version="1.0" encoding="UTF-8"?> <!-- Generator: Adobe Illustrator 24.1.2, SVG Export Plug-In . SVG Version: 6.00 Build 0) --> <svg xmlns="http://www.w3.org/2000/svg" xmlns:xlink="http://www.w3.org/1999/xlink" version="1.1" id="Calque_1" x="0px" y="0px" viewBox="0 0 500 500" style="enable-background:new 0 0 500 500;" xml:space="preserve"> <path d="M249.66,5.55C114.52,5.55,4.97,115.11,4.97,250.25c0,98.53,58.27,183.4,142.2,222.19c21.86-33.88,45.74-71.7,64.65-106.5 c24.25-44.63,46.54-91.05,52.98-140.28c1.86-14.18,2.35-28.5,1.53-42.75c-81.44,30.05-136.98,84.68-136.98,84.68 c47.58-99.9,89.4-104.13,89.4-104.13c-41.66-15.85-102.56,11.16-153.98,26.28c60.99-77.92,161.98-61.69,161.95-61.69 c-10.71-22.56-60.81-45.49-96.91-59.5c78.98-19.22,145.32,43.91,145.33,43.94c67.74-20.06,149.24,14.6,126.37,14.66 c-51.86,0.05-93.69,20.13-93.69,20.13c111.79,14.87,135.56,91.91,148.64,125.66c-81.18-80.85-134.7-88.39-134.7-88.39 c20.85,30.28,19.09,93.9,4.98,99.67c-7.53-53.63-33.56-83.09-47.68-95.47c1.1,10.96,1.52,21.98,1.19,32.98 c-2.28,76.41-38.58,148.33-58.5,222.68c-3.82,14.27-10.26,31.9-13.47,46.98c13.46,2.29,27.27,3.56,41.38,3.56 c135.14,0,244.69-109.55,244.69-244.69S384.8,5.55,249.66,5.55z"></path> </svg> 